<?xml version="1.0" standalone="no"?>
<!DOCTYPE svg PUBLIC "-//W3C//DTD SVG 20010904//EN"
 "http://www.w3.org/TR/2001/REC-SVG-20010904/DTD/svg10.dtd">
<svg version="1.0" xmlns="http://www.w3.org/2000/svg"
 width="357.000000pt" height="358.000000pt" viewBox="0 0 357.000000 358.000000"
 preserveAspectRatio="xMidYMid meet">

<g transform="translate(0.000000,358.000000) scale(0.100000,-0.100000)"
fill="#000000" stroke="none">
<path d="M1565 3353 c-277 -34 -502 -116 -725 -264 -122 -80 -314 -271 -397
-394 -129 -192 -217 -408 -255 -630 -26 -156 -21 -427 11 -573 136 -617 613
-1085 1223 -1201 138 -26 267 -35 388 -26 l100 7 0 105 c0 104 0 104 -22 97
-46 -14 -320 -8 -411 10 -415 81 -764 339 -951 706 -162 316 -195 690 -90
1021 152 483 559 838 1058 924 111 19 323 19 437 1 335 -54 652 -246 852 -515
40 -54 90 -132 112 -175 34 -65 43 -76 60 -70 52 15 122 16 159 0 22 -9 40
-15 41 -14 5 5 -59 142 -102 219 -262 475 -802 785 -1353 777 -58 0 -118 -3
-135 -5z"/>
<path d="M1655 2912 c-16 -11 -113 -104 -215 -206 -102 -102 -188 -186 -192
-186 -5 0 -8 28 -8 63 0 36 -5 68 -12 75 -8 8 -51 12 -129 12 -94 0 -121 -3
-133 -16 -14 -13 -16 -48 -16 -227 l0 -211 -125 -126 c-114 -115 -125 -130
-125 -163 0 -53 26 -67 125 -67 l80 0 375 375 376 375 42 0 c24 0 55 -6 70
-14 15 -8 118 -106 228 -218 l200 -204 65 -2 c73 -2 195 -31 266 -62 25 -11
47 -19 49 -17 2 2 -182 188 -409 415 -451 451 -446 447 -512 404z"/>
<path d="M1317 2172 l-367 -367 0 -353 c0 -387 1 -397 60 -427 24 -12 76 -15
289 -15 l261 0 -19 53 c-104 282 -52 620 128 843 42 52 50 69 53 110 l3 49 70
5 c44 3 85 13 110 26 22 12 74 32 115 45 41 13 77 25 80 26 2 2 -79 87 -180
188 -142 142 -191 185 -210 185 -20 0 -104 -79 -393 -368z m373 -12 l0 -60
-60 0 -60 0 0 60 0 60 60 0 60 0 0 -60z m160 0 l0 -60 -60 0 -60 0 0 60 0 60
60 0 60 0 0 -60z m-160 -160 l0 -60 -60 0 -60 0 0 60 0 60 60 0 60 0 0 -60z"/>
</g>
</svg>
